<svg xmlns="http://www.w3.org/2000/svg" x="0px" y="0px"
width="50" height="50"
viewBox="0 0 172 172"
style=" fill:#000000;"><g fill="none" fill-rule="nonzero" stroke="none" stroke-width="1" stroke-linecap="butt" stroke-linejoin="miter" stroke-miterlimit="10" stroke-dasharray="" stroke-dashoffset="0" font-family="none" font-weight="none" font-size="none" text-anchor="none" style="mix-blend-mode: normal"><path d="M0,172v-172h172v172z" fill="none"></path><g fill="#70a9a1"><path d="M155.74256,7.998c-0.6536,-0.71208 -1.57208,-1.118 -2.53872,-1.118h-134.40768c-0.96664,0 -1.88512,0.40592 -2.53872,1.118c-0.6536,0.71208 -0.97352,1.6684 -0.88752,2.62816l12.1088,135.62888c0.12728,1.41728 1.11456,2.61096 2.48368,3.00312l55.0744,15.73112c0.30616,0.086 0.62608,0.13072 0.94256,0.13072c0.31648,0 0.6364,-0.04472 0.94256,-0.13072l55.12256,-15.73112c1.36912,-0.39216 2.3564,-1.58584 2.48368,-3.00312l12.10192,-135.62888c0.086,-0.95976 -0.23736,-1.91608 -0.88752,-2.62816zM41.28,99.77376l24.08,6.68048v-68.61424h13.76v89.44l-37.84,-10.49544zM130.90576,75.68l-3.62576,42.14l-34.4,9.46v-15.82744l23.22,-6.3812l0.86,-12.9l-24.08,4.14864v-58.48h41.28l-1.1868,13.76h-26.3332v27.52z"></path></g></g></svg>